<svg width="60" height="61" viewBox="0 0 60 61" fill="none" xmlns="http://www.w3.org/2000/svg">
<path d="M24.6055 11.3909C27.0456 9.98207 28.2657 9.27765 29.6055 9.27765C30.9452 9.27765 32.1653 9.98207 34.6055 11.3909L45.7401 17.8195C48.1803 19.2283 49.4003 19.9327 50.0702 21.093C50.7401 22.2532 50.7401 23.6621 50.7401 26.4797V39.3369C50.7401 42.1545 50.7401 43.5634 50.0702 44.7236C49.4003 45.8839 48.1803 46.5883 45.7401 47.9971L34.6055 54.4257C32.1653 55.8345 30.9452 56.5389 29.6055 56.5389C28.2657 56.5389 27.0456 55.8345 24.6055 54.4257L13.4709 47.9971C11.0307 46.5883 9.81061 45.8839 9.14073 44.7236C8.47086 43.5634 8.47086 42.1545 8.47086 39.3369V26.4797C8.47086 23.6621 8.47086 22.2532 9.14073 21.093C9.81061 19.9327 11.0307 19.2283 13.4709 17.8195L24.6055 11.3909Z" fill="#282828"/>
<path fill-rule="evenodd" clip-rule="evenodd" d="M46.6374 10.2146L34.1055 2.97927C32.8685 2.26513 32.0025 1.76642 31.2802 1.43921C30.5779 1.12107 30.0834 1 29.6055 1C29.1275 1 28.6331 1.12107 27.9308 1.43921C27.2084 1.76642 26.3424 2.26513 25.1055 2.97927L12.5735 10.2146C11.3366 10.9287 10.4717 11.4294 9.82715 11.8913C9.20049 12.3405 8.84841 12.7081 8.60943 13.1221C8.37045 13.536 8.22808 14.0247 8.15244 14.792C8.07465 15.5812 8.07353 16.5805 8.07353 18.0088C8.07353 19.108 9.26346 19.795 10.2154 19.2454L16.1346 15.828L16.1346 15.828C18.5748 14.4191 19.7949 13.7147 21.1346 13.7147C22.4744 13.7147 23.6944 14.4191 26.1346 15.828L26.6055 16.0998C28.0696 16.9451 28.8016 17.3678 29.6055 17.3678C30.4093 17.3678 31.1414 16.9451 32.6055 16.0998L33.0763 15.828C35.5165 14.4191 36.7366 13.7147 38.0763 13.7147C39.4161 13.7147 40.6362 14.4191 43.0763 15.828L48.9955 19.2454C49.9475 19.795 51.1374 19.108 51.1374 18.0088C51.1374 16.5805 51.1363 15.5812 51.0585 14.792C50.9829 14.0247 50.8405 13.536 50.6015 13.1221C50.3625 12.7081 50.0105 12.3405 49.3838 11.8913C48.7393 11.4294 47.8743 10.9287 46.6374 10.2146ZM25.6346 20.1245C26.955 19.3621 26.955 17.4563 25.6346 16.694C24.3977 15.9799 23.5317 15.4812 22.8093 15.1539C22.107 14.8358 21.6126 14.7147 21.1346 14.7147C20.6566 14.7147 20.1622 14.8358 19.4599 15.1539C18.7376 15.4811 17.8715 15.9799 16.6346 16.694L11.0735 19.9047C9.60943 20.75 8.87738 21.1726 8.47546 21.8688C8.07353 22.5649 8.07353 23.4102 8.07353 25.1008V32.4795C8.07353 33.9077 8.07465 34.9071 8.15244 35.6963C8.22808 36.4635 8.37045 36.9523 8.60943 37.3662C8.84841 37.7801 9.20049 38.1478 9.82715 38.597C10.4717 39.0589 11.3366 39.5596 12.5735 40.2737C14.5149 41.3946 16.9417 39.9935 16.9417 37.7517V30.9168C16.9417 28.0991 16.9417 26.6903 17.6116 25.53C18.2815 24.3698 19.5016 23.6654 21.9417 22.2565L25.6346 20.1245ZM5 22.2565C5.55631 21.9354 5.83447 21.7748 6.06024 21.5752C6.54915 21.1431 6.88385 20.5634 7.01361 19.9239C7.07353 19.6286 7.07353 19.3075 7.07353 18.6651V18.0088C7.07353 15.1912 7.07353 13.7823 7.7434 12.6221C8.41328 11.4618 9.63336 10.7574 12.0735 9.34857L24.6055 2.11325C27.0456 0.704416 28.2657 0 29.6055 0C30.9452 0 32.1653 0.704416 34.6055 2.11325L47.1374 9.34857C49.5776 10.7574 50.7977 11.4618 51.4675 12.6221C52.1374 13.7823 52.1374 15.1912 52.1374 18.0088V18.6651C52.1374 19.3075 52.1374 19.6287 52.1973 19.9239C52.3271 20.5634 52.6618 21.1431 53.1507 21.5752C53.3765 21.7748 53.6546 21.9354 54.211 22.2565C56.6511 23.6654 57.8712 24.3698 58.5411 25.53C59.2109 26.6903 59.2109 28.0991 59.2109 30.9168V43.7739C59.2109 46.5916 59.2109 48.0004 58.5411 49.1607C57.8712 50.3209 56.6511 51.0254 54.2109 52.4342L43.0763 58.8628C40.6362 60.2716 39.4161 60.976 38.0763 60.976C36.7366 60.976 35.5165 60.2716 33.0763 58.8628L32.6055 58.5909C31.1414 57.7456 30.4093 57.323 29.6055 57.323C28.8016 57.323 28.0696 57.7456 26.6055 58.5909L26.1346 58.8628C23.6944 60.2716 22.4744 60.976 21.1346 60.976C19.7949 60.976 18.5748 60.2716 16.1346 58.8628L4.99999 52.4342C2.55983 51.0254 1.33975 50.3209 0.669873 49.1607C0 48.0004 0 46.5916 0 43.7739V30.9168C0 28.0991 0 26.6903 0.669873 25.53C1.33975 24.3698 2.55983 23.6654 5 22.2565ZM25.6346 54.5663C26.955 55.3286 26.955 57.2344 25.6346 57.9967C24.3977 58.7109 23.5317 59.2096 22.8093 59.5368C22.107 59.8549 21.6126 59.976 21.1346 59.976C20.6566 59.976 20.1622 59.8549 19.4599 59.5368C18.7376 59.2096 17.8715 58.7109 16.6346 57.9967L5.49999 51.5682C4.26307 50.854 3.39816 50.3534 2.75362 49.8914C2.12696 49.4423 1.77488 49.0746 1.5359 48.6607C1.29692 48.2468 1.15454 47.758 1.07891 46.9907C1.00112 46.2016 1 45.2022 1 43.7739V30.9168C1 29.4885 1.00112 28.4892 1.07891 27.7C1.15454 26.9327 1.29692 26.444 1.5359 26.03C1.77488 25.6161 2.12696 25.2485 2.75362 24.7993C3.39816 24.3374 4.26307 23.8367 5.5 23.1226C6.19935 22.7188 7.07353 23.2235 7.07353 24.031V32.4795C7.07353 35.2971 7.07353 36.706 7.7434 37.8662C8.41328 39.0265 9.63336 39.7309 12.0735 41.1397L13.9421 42.2185C15.2454 42.971 15.897 43.3472 16.2853 43.9268C16.6735 44.5065 16.8032 45.4743 17.0625 47.41C17.1556 48.1042 17.3202 48.656 17.6116 49.1607C18.2815 50.3209 19.5015 51.0254 21.9417 52.4342L25.6346 54.5663ZM33.5763 54.5663C32.256 55.3286 32.256 57.2344 33.5763 57.9967C34.8133 58.7109 35.6793 59.2096 36.4016 59.5368C37.1039 59.8549 37.5984 59.976 38.0763 59.976C38.5543 59.976 39.0487 59.8549 39.751 59.5368C40.4734 59.2096 41.3394 58.7109 42.5763 57.9967L53.7109 51.5682C54.9479 50.854 55.8128 50.3534 56.4573 49.8914C57.084 49.4423 57.4361 49.0746 57.675 48.6607C57.914 48.2468 58.0564 47.758 58.132 46.9907C58.2098 46.2016 58.2109 45.2022 58.2109 43.7739V30.9168C58.2109 29.4885 58.2098 28.4892 58.132 27.7C58.0564 26.9327 57.914 26.444 57.675 26.03C57.4361 25.6161 57.084 25.2485 56.4573 24.7993C55.8128 24.3374 54.9479 23.8367 53.711 23.1226C53.0116 22.7188 52.1374 23.2235 52.1374 24.0311V32.4795C52.1374 35.2971 52.1374 36.706 51.4675 37.8662C50.7977 39.0265 49.5776 39.7309 47.1374 41.1397L45.2688 42.2185C43.9656 42.971 43.314 43.3472 42.9257 43.9268C42.5374 44.5065 42.4077 45.4743 42.1484 47.41C42.0554 48.1042 41.8907 48.656 41.5993 49.1607C40.9295 50.3209 39.7094 51.0254 37.2692 52.4342L33.5763 54.5663ZM39.134 45.7605C40.0814 45.2135 41.2976 45.9021 41.1903 46.9907C41.1147 47.758 40.9723 48.2468 40.7333 48.6607C40.4943 49.0746 40.1423 49.4423 39.5156 49.8914C38.8711 50.3534 38.0061 50.854 36.7692 51.5682L32.6055 53.9721C31.1414 54.8174 30.4093 55.2401 29.6055 55.2401C28.8016 55.2401 28.0696 54.8174 26.6055 53.9721L22.4417 51.5682C21.2048 50.854 20.3399 50.3534 19.6953 49.8914C19.0687 49.4423 18.7166 49.0746 18.4776 48.6607C18.2386 48.2468 18.0963 47.758 18.0206 46.9907C17.9133 45.9021 19.1295 45.2135 20.0769 45.7605L24.6055 48.375C27.0456 49.7839 28.2657 50.4883 29.6055 50.4883C30.9452 50.4883 32.1653 49.7839 34.6055 48.375L39.134 45.7605ZM41.2692 39.9089C41.2692 41.5995 41.2692 42.4448 40.8673 43.141C40.4654 43.8371 39.7333 44.2598 38.2692 45.1051L34.1055 47.509C32.8685 48.2231 32.0025 48.7219 31.2802 49.0491C30.5779 49.3672 30.0834 49.4883 29.6055 49.4883C29.1275 49.4883 28.6331 49.3672 27.9308 49.0491C27.2084 48.7219 26.3424 48.2231 25.1055 47.509L20.9417 45.1051C19.4776 44.2598 18.7456 43.8371 18.3436 43.141C17.9417 42.4448 17.9417 41.5995 17.9417 39.9089V30.9168C17.9417 29.4885 17.9428 28.4892 18.0206 27.7C18.0963 26.9327 18.2386 26.444 18.4776 26.03C18.7166 25.6161 19.0687 25.2485 19.6953 24.7993C20.3399 24.3374 21.2048 23.8367 22.4417 23.1226L26.6055 20.7186C28.0696 19.8733 28.8016 19.4507 29.6055 19.4507C30.4093 19.4507 31.1414 19.8733 32.6055 20.7186L36.7692 23.1226C38.0062 23.8367 38.8711 24.3374 39.5156 24.7993C40.1423 25.2485 40.4943 25.6161 40.7333 26.03C40.9723 26.444 41.1147 26.9327 41.1903 27.7C41.2681 28.4892 41.2692 29.4885 41.2692 30.9168V39.9089ZM46.6374 40.2737C44.696 41.3946 42.2692 39.9935 42.2692 37.7517V30.9168C42.2692 28.0991 42.2692 26.6903 41.5993 25.53C40.9295 24.3698 39.7094 23.6654 37.2692 22.2565L33.5763 20.1245C32.256 19.3621 32.256 17.4563 33.5763 16.694C34.8133 15.9799 35.6793 15.4811 36.4016 15.1539C37.1039 14.8358 37.5984 14.7147 38.0763 14.7147C38.5543 14.7147 39.0487 14.8358 39.751 15.1539C40.4734 15.4812 41.3394 15.9799 42.5763 16.694L48.1374 19.9047C49.6015 20.75 50.3336 21.1726 50.7355 21.8688C51.1374 22.5649 51.1374 23.4102 51.1374 25.1008V32.4795C51.1374 33.9077 51.1363 34.9071 51.0585 35.6963C50.9829 36.4635 50.8405 36.9523 50.6015 37.3662C50.3625 37.7801 50.0105 38.1478 49.3838 38.5969C48.7393 39.0589 47.8743 39.5595 46.6374 40.2737Z" fill="white"/>
<path d="M30.5098 47.0468C30.0236 47.3321 29.7805 47.4747 29.5125 47.4766C29.2445 47.4784 28.9995 47.3392 28.5094 47.0607L27.5838 46.5346C27.2815 46.3628 27.1304 46.2769 27.0184 46.1484C26.9065 46.0198 26.8422 45.8583 26.7137 45.5352L21.2448 31.7911C20.5902 30.1459 20.2629 29.3234 20.5156 28.8997C20.6277 28.7118 20.7984 28.5658 21.0014 28.4842C21.4591 28.3002 22.221 28.751 23.7448 29.6527C23.9536 29.7763 24.058 29.838 24.1432 29.9208C24.1834 29.9599 24.2202 30.0022 24.2533 30.0474C24.3235 30.1433 24.3702 30.2552 24.4637 30.4791L27.6679 38.1563C28.4542 40.0403 28.8473 40.9823 29.5136 40.9823C30.1798 40.9823 30.573 40.0403 31.3593 38.1563L34.5751 30.4511C34.6597 30.2487 34.7019 30.1474 34.7635 30.0592C34.8017 30.0045 34.8454 29.9537 34.8938 29.9076C34.9717 29.8334 35.0654 29.7764 35.2528 29.6623C36.6663 28.8022 37.3731 28.3722 37.8049 28.5072C38.0609 28.5873 38.2741 28.7669 38.3964 29.0056C38.6027 29.4083 38.2987 30.1777 37.6908 31.7166L32.2272 45.5465C32.1018 45.8641 32.039 46.0229 31.9301 46.1501C31.8211 46.2774 31.6738 46.3638 31.3793 46.5366L30.5098 47.0468Z" fill="white"/>
</svg>
